HIERARCHY
ROOT Hips
{
 OFFSET 0.000000 0.000000 0.000000
 CHANNELS 6 Xposition Yposition Zposition Yrotation Xrotation Zrotation
 JOINT Chest
 {
  OFFSET 0.000000 9.581000 -0.001100
  CHANNELS 3 Yrotation Xrotation Zrotation
  JOINT Chest2
  {
   OFFSET 0.000000 9.561100 0.002200
   CHANNELS 3 Yrotation Xrotation Zrotation
   JOINT Chest3
   {
    OFFSET 0.000000 9.521100 0.000000
    CHANNELS 3 Yrotation Xrotation Zrotation
    JOINT Chest4
    {
     OFFSET 0.000000 9.511400 0.000000
     CHANNELS 3 Yrotation Xrotation Zrotation
     JOINT Neck
     {
      OFFSET 0.000000 14.375100 0.000000
      CHANNELS 3 Yrotation Xrotation Zrotation
      JOINT Head
      {
       OFFSET 0.000000 8.901200 0.004600
       CHANNELS 3 Yrotation Xrotation Zrotation
       End Site
       {
        OFFSET 0.000000 16.962200 0.002400
       }
      }
     }
     JOINT RightCollar
     {
      OFFSET -2.920100 9.518800 0.000000
      CHANNELS 3 Yrotation Xrotation Zrotation
      JOINT RightShoulder
      {
       OFFSET -13.664500 0.000000 0.000000
       CHANNELS 3 Yrotation Xrotation Zrotation
       JOINT RightElbow
       {
        OFFSET 0.000000 -29.999200 0.000000
        CHANNELS 3 Yrotation Xrotation Zrotation
        JOINT RightWrist
        {
         OFFSET 0.000000 -24.253600 0.000000
         CHANNELS 3 Yrotation Xrotation Zrotation
         End Site
         {
          OFFSET 0.000000 -17.918900 0.000000
         }
        }
       }
      }
     }
     JOINT LeftCollar
     {
      OFFSET 2.920100 9.518800 0.000000
      CHANNELS 3 Yrotation Xrotation Zrotation
      JOINT LeftShoulder
      {
       OFFSET 13.664500 0.000000 0.000000
       CHANNELS 3 Yrotation Xrotation Zrotation
       JOINT LeftElbow
       {
        OFFSET 0.000000 -29.999200 0.000000
        CHANNELS 3 Yrotation Xrotation Zrotation
        JOINT LeftWrist
        {
         OFFSET 0.000000 -24.253600 0.000000
         CHANNELS 3 Yrotation Xrotation Zrotation
         End Site
         {
          OFFSET 0.000000 -17.918900 0.000000
         }
        }
       }
      }
     }
    }
   }
  }
 }
 JOINT RightHip
 {
  OFFSET -7.797300 0.005300 0.000500
  CHANNELS 3 Yrotation Xrotation Zrotation
  JOINT RightKnee
  {
   OFFSET 0.000000 -40.663400 -0.000500
   CHANNELS 3 Yrotation Xrotation Zrotation
   JOINT RightAnkle
   {
    OFFSET 0.000000 -39.523700 -0.000900
    CHANNELS 3 Yrotation Xrotation Zrotation
    JOINT RightToe
    {
     OFFSET 0.000000 -6.418000 14.485300
     CHANNELS 3 Yrotation Xrotation Zrotation
     End Site
     {
      OFFSET 0.000000 -1.465200 6.326400
     }
    }
   }
  }
 }
 JOINT LeftHip
 {
  OFFSET 7.797300 0.005300 0.000500
  CHANNELS 3 Yrotation Xrotation Zrotation
  JOINT LeftKnee
  {
   OFFSET 0.000000 -40.663400 -0.000500
   CHANNELS 3 Yrotation Xrotation Zrotation
   JOINT LeftAnkle
   {
    OFFSET 0.000000 -39.523700 -0.000900
    CHANNELS 3 Yrotation Xrotation Zrotation
    JOINT LeftToe
    {
     OFFSET 0.000000 -6.418000 14.485300
     CHANNELS 3 Yrotation Xrotation Zrotation
     End Site
     {
      OFFSET 0.000000 -1.465200 6.326400
     }
    }
   }
  }
 }
}
MOTION
Frames: 12
Frame Time: 0.008333
-14.478557 126.915974 24.287012 -169.209310 -50.019811 -2.181942 -3.691915 25.698843 0.134696 -0.590140 4.240183 0.124160 -0.957462 6.719177 0.205981 -2.993545 21.180393 0.215714 6.021386 19.946519 -2.867367 7.215666 -4.272649 -4.511031 0.576335 1.695157 0.424592 6.530509 -6.273634 -8.135587 -59.167976 -53.087131 117.016132 20.678723 29.634470 24.251202 -11.659848 -1.816511 -2.554547 -12.966720 -24.806877 11.766326 39.240267 -60.488763 -87.626581 -17.317243 14.611307 -24.376826 -4.061454 -22.524644 -4.675336 -6.772514 78.101920 -6.246673 9.753370 -12.703909 2.136145 0.004513 -0.000700 0.002000 6.439852 6.567630 1.813713 128.783359 65.507194 148.059038 6.466376 13.261265 1.416754 -0.003264 0.001282 -0.001446
-14.477953 126.916226 24.286620 -169.220321 -50.016839 -2.183178 -3.664765 25.718898 0.132033 -0.593848 4.230023 0.134178 -0.954487 6.724188 0.204450 -2.980023 21.183550 0.217145 5.982439 19.804774 -2.859050 7.167899 -4.438705 -4.491343 0.575075 1.682224 0.423972 6.516557 -6.266055 -8.131223 -59.154903 -53.073733 117.007372 20.637669 29.657877 24.213717 -11.675602 -1.827884 -2.534262 -12.959946 -24.792783 11.742984 39.206252 -60.483103 -87.594231 -17.314606 14.604387 -24.364229 -4.059073 -22.525528 -4.672915 -6.782238 78.123244 -6.247989 9.747552 -12.860181 2.120776 0.001563 -0.001057 0.000692 6.446839 6.562619 1.821323 128.788725 65.509104 148.071980 6.478001 13.287267 1.361278 -0.002591 0.005115 -0.001148
-14.477854 126.916098 24.286623 -169.222200 -50.011789 -2.188327 -3.656409 25.718792 0.136099 -0.590612 4.233783 0.130862 -0.948413 6.730601 0.203390 -2.968443 21.190458 0.215739 5.942221 19.661742 -2.851843 7.119123 -4.605767 -4.472579 0.562144 1.664362 0.436340 6.518784 -6.250970 -8.134903 -59.136779 -53.062405 116.985414 20.648016 29.640332 24.206594 -11.698431 -1.836804 -2.525864 -12.963392 -24.787939 11.751049 39.191826 -60.477267 -87.576166 -17.296696 14.603596 -24.349513 -4.061975 -22.531344 -4.678229 -6.889649 78.153200 -6.342590 9.770377 -13.020350 2.098748 0.000446 -0.001631 0.000197 6.442391 6.556090 1.821722 128.797038 65.503278 148.078322 6.463209 13.267200 1.413364 0.000900 -0.003030 0.000399
-14.477670 126.916159 24.286432 -169.225273 -50.008966 -2.193247 -3.647217 25.720215 0.139702 -0.585718 4.243557 0.125424 -0.943958 6.732008 0.202337 -2.957800 21.199782 0.215311 5.902356 19.515767 -2.844763 7.070792 -4.775744 -4.454145 0.567344 1.656043 0.422143 6.497167 -6.225790 -8.108956 -59.168974 -53.070579 117.021727 20.647998 29.634019 24.198680 -11.717380 -1.852635 -2.503322 -12.962555 -24.781253 11.738103 39.169758 -60.474070 -87.548801 -17.282397 14.605327 -24.337873 -4.065239 -22.535181 -4.683201 -6.982862 78.181660 -6.426498 9.802109 -13.177534 2.076801 0.000827 -0.002438 0.000366 6.441994 6.548351 1.823364 128.799904 65.499108 148.087604 6.457215 13.276702 1.417019 0.005060 -0.007692 0.002242
-14.478699 126.916831 24.285870 -169.225359 -50.011478 -2.193371 -3.640245 25.733472 0.132041 -0.581931 4.252336 0.121888 -0.941421 6.730409 0.205447 -2.953475 21.201537 0.215327 5.863288 19.373538 -2.843169 7.024153 -4.948813 -4.436360 0.562308 1.648174 0.423682 6.494467 -6.213950 -8.095169 -59.192214 -53.079674 117.046380 20.585220 29.657411 24.143072 -11.738699 -1.861456 -2.489801 -12.952136 -24.777245 11.725351 39.129560 -60.462515 -87.508661 -17.277559 14.601809 -24.327017 -4.070973 -22.533714 -4.695647 -7.157343 78.216954 -6.585902 9.830907 -13.341740 2.046258 0.002199 -0.002322 0.000974 6.437630 6.550062 1.820784 128.800596 65.498882 148.089170 6.457452 13.289203 1.403645 0.007186 -0.008472 0.003184
-14.479114 126.916438 24.286088 -169.227661 -50.006061 -2.193869 -3.629751 25.742284 0.127588 -0.581860 4.255700 0.122006 -0.938141 6.733686 0.202322 -2.952923 21.188195 0.227622 5.825085 19.243785 -2.851678 6.979252 -5.124227 -4.420108 0.561172 1.650046 0.418573 6.491365 -6.200305 -8.086268 -59.181657 -53.080636 117.024736 20.574449 29.645617 24.131061 -11.748276 -1.858886 -2.494363 -12.943974 -24.775270 11.721736 39.090511 -60.446785 -87.473918 -17.274214 14.593047 -24.319470 -4.077064 -22.540746 -4.701821 -7.200030 78.241154 -6.623439 9.838629 -13.487826 2.022968 0.000890 -0.003011 0.000394 6.438581 6.545395 1.821053 128.817158 65.495752 148.105143 6.466854 13.288371 1.385870 0.006641 -0.004125 0.002942
-14.478905 126.915494 24.286732 -169.230120 -49.996123 -2.196760 -3.619464 25.747303 0.126609 -0.582479 4.254812 0.124462 -0.929837 6.765068 0.186376 -2.949047 21.169927 0.236483 5.791616 19.093945 -2.843405 6.935360 -5.301479 -4.405967 0.557812 1.627006 0.437299 6.484248 -6.179244 -8.084277 -59.130559 -53.076930 116.949221 20.582067 29.611806 24.136438 -11.763260 -1.870487 -2.473470 -12.933896 -24.778536 11.721768 39.077756 -60.423042 -87.462723 -17.277301 14.589418 -24.313185 -4.093321 -22.553182 -4.715140 -7.106811 78.261627 -6.535007 9.878328 -13.621894 1.997412 -0.001353 -0.004246 -0.000600 6.441003 6.534078 1.820539 128.820414 65.490705 148.111970 6.481844 13.303464 1.337593 0.003091 0.002192 0.001370
-14.478894 126.915666 24.286501 -169.227402 -49.995042 -2.202796 -3.609723 25.773366 0.120044 -0.584193 4.247202 0.131225 -0.931526 6.758225 0.190597 -2.942975 21.189128 0.228286 5.755098 18.939447 -2.841973 6.891498 -5.479396 -4.392973 0.552826 1.607824 0.436743 6.470485 -6.167884 -8.069312 -59.128448 -53.083120 116.951413 20.582752 29.602379 24.136345 -11.788113 -1.889757 -2.462765 -12.917817 -24.779124 11.728829 39.066574 -60.400948 -87.454570 -17.289135 14.585688 -24.308101 -4.101120 -22.567211 -4.723619 -7.174874 78.294397 -6.602997 9.927784 -13.706550 1.982564 -0.000041 0.001034 -0.000018 6.438342 6.528900 1.817998 128.826871 65.483177 148.120206 6.495916 13.321384 1.301916 0.000910 0.007246 0.000403
-14.479645 126.915650 24.286609 -169.221707 -49.992863 -2.205880 -3.613013 25.775087 0.117152 -0.577973 4.266401 0.123557 -0.934472 6.747461 0.196147 -2.934653 21.208767 0.219875 5.715974 18.785544 -2.840437 6.848134 -5.655490 -4.380504 0.547144 1.594347 0.437472 6.450959 -6.161721 -8.056107 -59.141823 -53.092358 116.982305 20.571446 29.604762 24.127456 -11.801917 -1.913683 -2.442399 -12.900556 -24.759903 11.693852 39.038576 -60.395912 -87.441242 -17.325963 14.586420 -24.297567 -4.105088 -22.581084 -4.735120 -7.256879 78.323632 -6.686476 9.976761 -13.788162 1.971274 0.002368 0.005719 0.001049 6.431382 6.525227 1.807197 128.824970 65.474516 148.115313 6.492710 13.309837 1.334697 -0.000596 0.003246 -0.000264
-14.480080 126.915772 24.286632 -169.224732 -49.992305 -2.204178 -3.601566 25.790477 0.115397 -0.582282 4.267220 0.122572 -0.929071 6.755575 0.194031 -2.926838 21.246976 0.200676 5.680327 18.601316 -2.821994 6.805817 -5.828310 -4.369519 0.538154 1.554184 0.461299 6.432525 -6.159465 -8.049364 -59.126601 -53.099461 116.973200 20.558012 29.609823 24.119639 -11.831461 -1.950243 -2.414364 -12.885803 -24.753165 11.692311 39.030073 -60.395694 -87.442677 -17.330625 14.582107 -24.273433 -4.109231 -22.578983 -4.741315 -7.326142 78.338516 -6.750606 9.989283 -13.912920 1.946647 0.001647 0.004614 0.000730 6.433180 6.524623 1.805923 128.827867 65.473199 148.119328 6.484519 13.296902 1.369975 0.002348 -0.000549 0.001040
-14.480028 126.915394 24.287062 -169.234312 -49.988341 -2.200017 -3.591321 25.797020 0.115441 -0.584180 4.272668 0.117941 -0.924536 6.761711 0.196193 -2.924121 21.256272 0.196709 5.645244 18.451696 -2.822679 6.765247 -5.998684 -4.360852 0.535900 1.547383 0.460828 6.414204 -6.160757 -8.039931 -59.112853 -53.109797 116.966801 20.570447 29.589752 24.132329 -11.840347 -1.972003 -2.398617 -12.879154 -24.744813 11.682536 39.029358 -60.396938 -87.446069 -17.309852 14.573607 -24.260188 -4.109060 -22.565361 -4.745997 -7.389526 78.335993 -6.803703 10.005473 -14.081424 1.914240 0.001182 -0.003078 0.000524 6.439944 6.519056 1.804774 128.824429 65.465388 148.116455 6.476924 13.283818 1.403290 0.002885 -0.002448 0.001278
-14.479809 126.915718 24.286886 -169.239943 -49.990008 -2.200750 -3.585780 25.811980 0.109955 -0.584951 4.274891 0.118874 -0.920319 6.770153 0.194902 -2.923193 21.262486 0.196206 5.612139 18.303071 -2.825413 6.727620 -6.167367 -4.354934 0.540180 1.544041 0.455405 6.402915 -6.176821 -8.025894 -59.085514 -53.117136 116.935282 20.570439 29.580323 24.136347 -11.843132 -1.990549 -2.384457 -12.875207 -24.746815 11.683731 39.029466 -60.397220 -87.447778 -17.306698 14.570402 -24.258579 -4.108932 -22.558538 -4.753230 -7.471308 78.345010 -6.874900 10.044014 -14.188935 1.887901 0.001980 -0.005434 0.000877 6.446477 6.519787 1.807489 128.814277 65.462556 148.109830 6.478385 13.288157 1.403513 0.002075 -0.001663 0.000919
